<svg width="13" height="22" viewBox="0 0 13 22" fill="none" xmlns="http://www.w3.org/2000/svg">
<path d="M11.2352 0.492499C11.0404 0.498175 10.8555 0.57943 10.7196 0.719061L0.969583 10.4691C0.828983 10.6097 0.75 10.8005 0.75 10.9993C0.75 11.1982 0.828983 11.389 0.969583 11.5296L10.7196 21.2796C10.7887 21.3516 10.8715 21.4091 10.9631 21.4486C11.0547 21.4882 11.1532 21.5091 11.253 21.5102C11.3528 21.5112 11.4518 21.4923 11.5442 21.4545C11.6365 21.4168 11.7205 21.3611 11.791 21.2905C11.8616 21.2199 11.9174 21.136 11.9551 21.0436C11.9928 20.9513 12.0117 20.8523 12.0107 20.7525C12.0097 20.6527 11.9887 20.5541 11.9492 20.4625C11.9096 20.3709 11.8521 20.2882 11.7801 20.2191L2.5604 10.9993L11.7801 1.77961C11.8883 1.67423 11.9622 1.53864 11.9921 1.39059C12.0219 1.24254 12.0064 1.08892 11.9475 0.949832C11.8886 0.810748 11.7891 0.69268 11.662 0.611081C11.5349 0.529481 11.3862 0.48815 11.2352 0.492499Z" fill="white"/>
</svg>
