<svg width="12" height="22" viewBox="0 0 12 22" fill="none" xmlns="http://www.w3.org/2000/svg">
<path d="M1.2423 0.492188C1.09304 0.492224 0.947187 0.536791 0.823397 0.620188C0.699608 0.703584 0.603515 0.822017 0.547413 0.960333C0.49131 1.09865 0.477749 1.25056 0.508466 1.39662C0.539183 1.54269 0.612781 1.67627 0.719843 1.78027L9.93957 11L0.719843 20.2197C0.647864 20.2888 0.590399 20.3716 0.550811 20.4632C0.511224 20.5548 0.490311 20.6534 0.489297 20.7532C0.488282 20.8529 0.507188 20.9519 0.544904 21.0443C0.582621 21.1367 0.638391 21.2206 0.70895 21.2912C0.779508 21.3617 0.863436 21.4175 0.955818 21.4552C1.0482 21.4929 1.14718 21.5118 1.24696 21.5108C1.34674 21.5098 1.44531 21.4889 1.53691 21.4493C1.6285 21.4097 1.71128 21.3523 1.78039 21.2803L11.5304 11.5303C11.671 11.3896 11.75 11.1989 11.75 11C11.75 10.8011 11.671 10.6104 11.5304 10.4697L1.78039 0.719727C1.71048 0.647733 1.62684 0.5905 1.53441 0.551416C1.44198 0.512332 1.34265 0.492191 1.2423 0.492188Z" fill="white"/>
</svg>
