<svg width="22" height="22" viewBox="0 0 22 22" fill="none" xmlns="http://www.w3.org/2000/svg">
<path d="M9.39503 16.9586H20.3957C21.2804 16.9586 22 17.6782 22 18.5629V20.3963C22 21.2809 21.2804 22.0006 20.3957 22.0006H9.39503C8.51039 22.0006 7.79076 21.2809 7.79076 20.3963V18.5629C7.79076 17.6782 8.51039 16.9586 9.39503 16.9586ZM9.16585 20.3963C9.16585 20.5228 9.26853 20.6255 9.39503 20.6255H20.3957C20.5222 20.6255 20.6249 20.5228 20.6249 20.3963V18.5629C20.6249 18.4363 20.5222 18.3337 20.3957 18.3337H9.39503C9.26853 18.3337 9.16585 18.4363 9.16585 18.5629V20.3963Z" fill="#999999"/>
<path d="M7.93634 8.6603C7.48898 8.11668 7.11495 7.56206 6.91511 7.05328C6.90869 7.05328 6.90227 7.05511 6.89677 7.05511C6.48791 7.05511 6.07814 6.89927 5.76737 6.58758L5.12383 5.94496C4.50046 5.32159 4.50046 4.30861 5.12383 3.68523L8.34153 0.46753C8.9649 -0.155843 9.97789 -0.155843 10.6003 0.46753L11.2439 1.11107C11.5583 1.42551 11.7132 1.83895 11.7096 2.25239C12.013 2.37432 12.2724 2.53658 12.4155 2.62733C13.6796 3.4313 15.3618 5.11441 16.1649 6.37857C16.2556 6.51975 16.417 6.77826 16.538 7.07987C16.9514 7.07712 17.3649 7.23113 17.6802 7.54556L18.3228 8.19002C18.6244 8.49162 18.7913 8.89223 18.7913 9.31942C18.7913 9.74662 18.6244 10.1472 18.3228 10.4488L15.1051 13.6665C14.7934 13.9782 14.3846 14.1341 13.9757 14.1341C13.5669 14.1341 13.1571 13.9782 12.8463 13.6665L12.2028 13.023C11.8874 12.7076 11.7325 12.2914 11.7371 11.8771C11.4364 11.7561 11.176 11.5993 11.0349 11.5095C10.7553 11.3316 10.45 11.1043 10.1356 10.8476C7.819 13.5455 4.50962 17.184 3.91559 17.779C3.38939 18.3052 2.70093 18.7965 1.96571 18.7965C1.5266 18.7965 1.06916 18.6205 0.620878 18.1713C0.455867 18.0063 0.070842 17.6213 0.00850472 16.9997C-0.0593329 16.325 0.278939 15.61 1.01324 14.8766C1.59994 14.2872 5.23017 10.9842 7.93634 8.6603ZM10.2722 2.0828L9.62861 1.43926C9.58553 1.39617 9.52869 1.37417 9.47094 1.37417C9.4141 1.37417 9.35635 1.39617 9.31326 1.43926L6.09556 4.65696C6.00847 4.74405 6.00847 4.88523 6.09556 4.97232L6.7391 5.61494C6.82619 5.70111 6.96736 5.70111 7.05445 5.61494L10.2722 2.39724C10.3583 2.31015 10.3583 2.16989 10.2722 2.0828ZM13.1754 12.0503L13.819 12.6939C13.9061 12.7791 14.0472 12.7791 14.1334 12.6939L17.3511 9.47618C17.4079 9.41935 17.4162 9.35334 17.4162 9.31942C17.4162 9.2855 17.4079 9.2195 17.3511 9.16175L16.7076 8.51821C16.6645 8.47512 16.6067 8.45312 16.5499 8.45312C16.493 8.45312 16.4353 8.47512 16.3922 8.51821L13.1745 11.7359C13.0883 11.8221 13.0883 11.9642 13.1754 12.0503ZM12.3238 10.6423L15.2995 7.66657C15.0556 6.66734 12.123 3.73382 11.1238 3.48997L8.1481 6.46566C8.3892 7.45939 11.3255 10.3993 12.3238 10.6423ZM1.59169 17.1996C1.79429 17.4031 2.07205 17.6763 2.94294 16.8063C3.45722 16.292 6.72535 12.7104 9.11341 9.92721C9.07216 9.88688 8.9044 9.72187 8.86223 9.67878C6.06989 12.0742 2.49466 15.3386 1.98496 15.8474C1.40193 16.4305 1.36526 16.7504 1.37626 16.8613C1.38726 16.986 1.47618 17.0841 1.59169 17.1996Z" fill="#999999"/>
</svg>
