<svg width="48" height="48" viewBox="0 0 48 48" xmlns="http://www.w3.org/2000/svg">
<path d="M0 -0.000976562H48V47.999H24C10.7452 47.999 0 37.2539 0 23.999V-0.000976562Z" fill="#333333"/>
<path d="M15.999 20.749C14.2127 20.749 12.749 22.2132 12.749 23.999C12.749 25.785 14.2131 27.249 15.999 27.249C17.785 27.249 19.249 25.785 19.249 23.999C19.249 22.2131 17.785 20.749 15.999 20.749ZM23.999 20.749C22.2127 20.749 20.749 22.2132 20.749 23.999C20.749 25.785 22.2131 27.249 23.999 27.249C25.785 27.249 27.249 25.785 27.249 23.999C27.249 22.2131 25.785 20.749 23.999 20.749ZM31.999 20.749C30.2127 20.749 28.749 22.2132 28.749 23.999C28.749 25.785 30.2131 27.249 31.999 27.249C33.7853 27.249 35.249 25.7848 35.249 23.999C35.249 22.2131 33.785 20.749 31.999 20.749ZM15.999 22.249C16.9741 22.249 17.749 23.024 17.749 23.999C17.749 24.9741 16.9741 25.749 15.999 25.749C15.024 25.749 14.249 24.9741 14.249 23.999C14.249 23.0238 15.0233 22.249 15.999 22.249ZM23.999 22.249C24.9741 22.249 25.749 23.024 25.749 23.999C25.749 24.9741 24.9741 25.749 23.999 25.749C23.024 25.749 22.249 24.9741 22.249 23.999C22.249 23.0238 23.0233 22.249 23.999 22.249ZM31.999 22.249C32.9741 22.249 33.749 23.024 33.749 23.999C33.749 24.9742 32.9747 25.749 31.999 25.749C31.024 25.749 30.249 24.9741 30.249 23.999C30.249 23.0238 31.0233 22.249 31.999 22.249Z" fill="#999999"/>
</svg>
