<svg width="18" height="21" viewBox="0 0 18 21" fill="none" xmlns="http://www.w3.org/2000/svg">
<path d="M6.73795 0.488324C6.7016 0.489273 6.66537 0.492863 6.62955 0.499066H3.24967C2.01592 0.499066 0.999665 1.51532 0.999665 2.74907V6.12602C0.98644 6.20653 0.98644 6.28867 0.999665 6.36918V11.126C0.98644 11.2065 0.98644 11.2887 0.999665 11.3692V17.7491C0.999665 18.9828 2.01592 19.9991 3.24967 19.9991H6.62662C6.70713 20.0123 6.78927 20.0123 6.86978 19.9991H12.1266C12.2071 20.0123 12.2893 20.0123 12.3698 19.9991H14.7497C15.9834 19.9991 16.9997 18.9828 16.9997 17.7491V11.3721C17.0129 11.2916 17.0129 11.2095 16.9997 11.1289V6.37211C17.0129 6.2916 17.0129 6.20946 16.9997 6.12895V2.74907C16.9997 1.51532 15.9834 0.499066 14.7497 0.499066H6.87271C6.82821 0.491436 6.7831 0.487841 6.73795 0.488324ZM3.24967 1.99907H5.99967V5.49907H2.49967V2.74907C2.49967 2.32582 2.82642 1.99907 3.24967 1.99907ZM7.49967 1.99907H14.7497C15.1729 1.99907 15.4997 2.32582 15.4997 2.74907V5.49907H7.49967V1.99907ZM7.49967 6.99907H15.4997V10.4991H12.3727C12.2922 10.4858 12.2101 10.4858 12.1295 10.4991H7.49967V6.99907ZM2.49967 11.9991H5.99967V18.4991H3.24967C2.82642 18.4991 2.49967 18.1723 2.49967 17.7491V11.9991ZM7.49967 11.9991H11.4997V18.4991H7.49967V11.9991Z" fill="#999999"/>
</svg>
