<svg width="24" height="25" viewBox="0 0 24 25" xmlns="http://www.w3.org/2000/svg">
<path d="M12.0047 2.50276C11.8645 2.50189 11.7269 2.54031 11.6074 2.61367C11.488 2.68702 11.3915 2.79239 11.3289 2.9178L8.75272 8.07014L2.63553 9.01155C2.49861 9.03271 2.37022 9.09138 2.2646 9.18105C2.15899 9.27072 2.08027 9.3879 2.03719 9.51958C1.9941 9.65126 1.98833 9.7923 2.02052 9.92706C2.0527 10.0618 2.12158 10.185 2.21952 10.283L6.45096 14.5145L5.50858 20.6385C5.4875 20.7755 5.5048 20.9157 5.55856 21.0435C5.61232 21.1712 5.70043 21.2816 5.81313 21.3623C5.92582 21.4431 6.05868 21.491 6.19696 21.5008C6.33524 21.5106 6.47353 21.4818 6.59647 21.4178L11.9998 18.5985L17.4031 21.4178C17.5261 21.4818 17.6643 21.5106 17.8026 21.5008C17.9409 21.491 18.0738 21.4431 18.1865 21.3623C18.2991 21.2816 18.3873 21.1712 18.441 21.0435C18.4948 20.9157 18.5121 20.7755 18.491 20.6385L17.5486 14.5145L21.7801 10.283C21.878 10.185 21.9469 10.0618 21.9791 9.92706C22.0112 9.7923 22.0055 9.65126 21.9624 9.51958C21.9193 9.3879 21.8406 9.27072 21.735 9.18105C21.6294 9.09138 21.501 9.03271 21.364 9.01155L15.2469 8.07014L12.6707 2.9178C12.6088 2.79387 12.5138 2.68949 12.3963 2.61623C12.2787 2.54298 12.1432 2.5037 12.0047 2.50276Z"/>
</svg>
