<svg width="24" height="25" viewBox="0 0 24 25" xmlns="http://www.w3.org/2000/svg">
<path d="M12.0049 2.50276C11.8647 2.50189 11.7271 2.54031 11.6077 2.61367C11.4882 2.68702 11.3917 2.79239 11.3291 2.9178L8.75296 8.07014L2.63578 9.01155C2.49885 9.03271 2.37046 9.09138 2.26485 9.18105C2.15923 9.27072 2.08052 9.3879 2.03743 9.51958C1.99435 9.65126 1.98858 9.7923 2.02076 9.92706C2.05294 10.0618 2.12182 10.185 2.21976 10.283L6.45121 14.5145L5.50882 20.6385C5.48774 20.7755 5.50504 20.9157 5.5588 21.0435C5.61256 21.1712 5.70068 21.2816 5.81337 21.3623C5.92607 21.4431 6.05893 21.491 6.19721 21.5008C6.33548 21.5106 6.47377 21.4818 6.59671 21.4178L12 18.5985L17.4034 21.4178C17.5263 21.4818 17.6646 21.5106 17.8029 21.5008C17.9411 21.491 18.074 21.4431 18.1867 21.3623C18.2994 21.2816 18.3875 21.1712 18.4413 21.0435C18.495 20.9157 18.5123 20.7755 18.4912 20.6385L17.5489 14.5145L21.7803 10.283C21.8782 10.185 21.9471 10.0618 21.9793 9.92706C22.0115 9.7923 22.0057 9.65126 21.9626 9.51958C21.9195 9.3879 21.8408 9.27072 21.7352 9.18105C21.6296 9.09138 21.5012 9.03271 21.3643 9.01155L15.2471 8.07014L12.6709 2.9178C12.6091 2.79387 12.5141 2.68949 12.3965 2.61623C12.279 2.54298 12.1434 2.5037 12.0049 2.50276ZM12 4.92952L14.0791 9.08772C14.1327 9.195 14.2112 9.28787 14.308 9.35856C14.4049 9.42924 14.5173 9.47568 14.6358 9.49397L19.6729 10.2694L16.2198 13.7225C16.1364 13.8058 16.0739 13.9076 16.0373 14.0196C16.0006 14.1315 15.9909 14.2506 16.0088 14.367L16.7832 19.4022L12.3467 17.0877C12.2397 17.0319 12.1207 17.0028 12 17.0028C11.8793 17.0028 11.7604 17.0319 11.6534 17.0877L7.21683 19.4022L7.99124 14.367C8.00918 14.2506 7.99943 14.1315 7.96278 14.0196C7.92613 13.9076 7.86362 13.8058 7.78031 13.7225L4.32718 10.2694L9.36429 9.49397C9.48279 9.47568 9.59518 9.42924 9.69203 9.35856C9.78888 9.28787 9.86737 9.195 9.92093 9.08772L12 4.92952Z" />
</svg>
