<?xml version="1.0" encoding="UTF-8"?>
<svg width="251px" height="90px" viewBox="0 0 251 90" version="1.1" xmlns="http://www.w3.org/2000/svg" xmlns:xlink="http://www.w3.org/1999/xlink">
    <title>Group 4</title>
    <g id="Web" stroke="none" stroke-width="1" fill="none" fill-rule="evenodd">
        <g id="Desktop-HD" transform="translate(-40.000000, 0.000000)">
            <g id="Group-4" transform="translate(40.000000, 0.000000)">
                <rect id="Rectangle" fill="#222222" x="0" y="0" width="251" height="90"></rect>
                <g id="imnotArt_Logo_Tan" transform="translate(39.000000, 29.000000)" fill="#EEEAE4" fill-rule="nonzero">
                    <g id="Asset-1" transform="translate(0.000000, 8.534667)">
                        <path d="M29.3265474,16.7243095 L29.3265474,19.4365791 L16.6848889,19.4365791 L16.6848889,16.7243095 L21.5897636,16.7243095 L21.5897636,8.99363733 L17.4135555,8.99363733 L17.4135555,6.28136769 L24.7163689,6.28136769 L24.7163689,16.7243095 L29.3265474,16.7243095 Z M23.0188382,0.000322224649 C23.6245667,-0.00968909699 24.2067182,0.233931864 24.6235194,0.671855255 C25.0460539,1.09167995 25.2835209,1.66172003 25.2835209,2.25619067 C25.2835209,2.8506613 25.0460539,3.42070139 24.6235194,3.84052608 C24.2007674,4.26897334 23.6229475,4.51029988 23.0198474,4.51029988 C22.4167473,4.51029988 21.8389275,4.26897334 21.4161754,3.84052608 C20.9926451,3.42122952 20.7544894,2.85099157 20.7544894,2.25619067 C20.7544894,1.66138977 20.9926451,1.09115182 21.4161754,0.671855255 C21.8319191,0.233617393 22.4136148,-0.0101193989 23.0188382,0.000322224649 Z" id="Shape"></path>
                        <path d="M37.3408528,8.79219193 C36.9067057,8.76833806 36.4956967,8.99018044 36.2759595,9.36696881 C36.0446344,9.75148853 35.930966,10.3262654 35.930966,11.0933022 L35.930966,19.4365791 L33.1391111,19.4365791 L33.1391111,6.33286785 L35.8551871,6.33286785 L35.8551871,7.66867335 C36.0608841,7.16509732 36.4141931,6.73624075 36.8682316,6.43901131 C37.339735,6.14672528 37.885726,5.99851053 38.4396471,6.01243474 C38.9996875,5.99702214 39.5526815,6.14072101 40.0349928,6.42699507 C40.4931496,6.72039908 40.8546404,7.14336058 41.0739617,7.64263816 C41.6518059,6.61303578 42.7470804,5.98646845 43.9236479,6.01243474 C44.8981382,6.01243474 45.6526037,6.33286785 46.1870445,6.97373406 C46.7214853,7.61460027 46.9873763,8.53317517 46.9847371,9.72945876 L46.9847371,19.4365791 L44.1828915,19.4365791 L44.1828915,10.6386877 C44.1828915,10.0138431 44.0771999,9.55121784 43.8638224,9.24680639 C43.6343975,8.93613872 43.2628577,8.76468109 42.8786965,8.79219193 C42.4472537,8.76681272 42.0372953,8.98346213 41.8138032,9.35495257 C41.5824781,9.73012633 41.4668155,10.3002302 41.4668155,11.0652643 L41.4668155,19.4365791 L38.6470421,19.4365791 L38.6470421,10.6386877 C38.6470421,10.0311999 38.5360326,9.57191248 38.3140136,9.26082534 C38.0905637,8.94800964 37.723632,8.77131075 37.3408528,8.79219193 Z" id="Path"></path>
                        <path d="M54.1118199,19.4365791 L50.9979621,19.4365791 L50.9979621,6.33223077 L54.1118199,6.33223077 L54.1118199,8.07066488 C54.5296976,7.4222191 55.1131835,6.89618947 55.8024296,6.54653083 C56.5267316,6.18417153 57.3279111,6.0007602 58.1383256,6.01178208 C59.7130116,6.01178208 60.9566786,6.50647474 61.8693264,7.49586005 C62.7819742,8.48524536 63.2382981,9.83580304 63.2382981,11.5475331 L63.2382981,19.4365791 L60.1244402,19.4365791 L60.1244402,12.1363576 C60.1244402,11.1015753 59.8698102,10.3004536 59.36055,9.73299242 C58.8512898,9.16553121 58.1309547,8.8797978 57.1995447,8.87579219 C56.3368809,8.84480432 55.5087097,9.21480832 54.9581299,9.87719433 C54.3939233,10.5447958 54.1118199,11.432038 54.1118199,12.5389212 L54.1118199,19.4365791 Z" id="Path"></path>
                        <path d="M67.253397,12.9233159 C67.2094556,11.0736753 67.9399683,9.28967631 69.2686975,8.00171208 C70.6122312,6.67477945 72.2809,6.01131313 74.274704,6.01131313 C76.2685079,6.01131313 77.9371768,6.67477945 79.2807105,8.00171208 C80.6081944,9.29051782 81.3384742,11.0739481 81.296011,12.9233159 C81.3390391,14.7733786 80.6087145,16.5576483 79.2807105,17.8469344 C77.9371768,19.173867 76.2685079,19.8373333 74.274704,19.8373333 C72.2809,19.8373333 70.6122312,19.1705094 69.2686975,17.8368615 C67.9432916,16.5499781 67.2131907,14.769904 67.253397,12.9233159 Z M78.20454,12.9233159 C78.2265421,11.8497183 77.8145959,10.8125983 77.0618646,10.0465045 C76.3331753,9.28957676 75.3275956,8.86185937 74.2767193,8.86185937 C73.2258429,8.86185937 72.2202632,9.28957676 71.4915739,10.0465045 C69.9650031,11.6615994 69.9650031,14.1870471 71.4915739,15.8021419 C72.2202632,16.5590697 73.2258429,16.9867871 74.2767193,16.9867871 C75.3275956,16.9867871 76.3331753,16.5590697 77.0618646,15.8021419 C77.8143641,15.0352246 78.2256083,13.9973164 78.2025247,12.9233159 L78.20454,12.9233159 Z" id="Shape"></path>
                        <path d="M94.2765797,19.8371131 C92.3100995,19.8371131 90.7870807,19.3039079 89.7075231,18.2374974 C88.6279656,17.1710869 88.087518,15.6601149 88.0861803,13.7045813 L88.0861803,8.99639252 L83.9064065,8.99639252 L83.9064065,6.33305251 L88.0861803,6.33305251 L88.0861803,2.40452525 L91.1743569,2.40452525 L91.1743569,6.33305251 L97.3105778,6.33305251 L97.3105778,8.99639252 L91.1743569,8.99639252 L91.1743569,13.2472605 C91.1743569,14.4842429 91.4646468,15.4123155 92.0452267,16.0314782 C92.6258065,16.650641 93.4873122,16.9595508 94.6297435,16.9582078 C95.2348171,16.9593574 95.836244,16.864159 96.4116154,16.6761596 C96.9707328,16.4992886 97.4929885,16.2214146 97.9526938,15.8562055 L97.9526938,18.9224714 C97.4598464,19.2372553 96.9168801,19.4648494 96.3474038,19.5953576 C95.6696245,19.7609486 94.9741199,19.8421444 94.2765797,19.8371131 L94.2765797,19.8371131 Z" id="Path"></path>
                        <polygon id="Path" points="11.4376911 17.4328081 0 11.9197228 0 9.12188743 11.4376911 3.60678788 11.4376911 6.70072247 3.34024608 10.4936123 11.4376911 14.2583023"></polygon>
                        <path d="M134.58229,6.01158824 C136.152732,6.01158824 137.387986,6.48316714 138.288053,7.42632494 C139.188119,8.36948275 139.655512,9.67016006 139.690233,11.3283569 L136.509286,11.3283569 C136.45587,10.5279401 136.192794,9.91362017 135.720059,9.48539718 C135.247324,9.05717419 134.591638,8.84306269 133.753,8.84306269 C132.631256,8.84306269 131.74855,9.23926901 131.104882,10.0316816 C130.461215,10.8240943 130.140716,11.8913167 130.143387,13.2333489 L130.143387,19.4365791 L127.048575,19.4365791 L127.048575,6.33175496 L130.1514,6.33175496 L130.1514,8.49488138 C130.56317,7.72735141 131.189552,7.09605508 131.954203,6.67793523 C132.757546,6.23186347 133.663233,6.00222815 134.58229,6.01158824 L134.58229,6.01158824 Z" id="Path"></path>
                        <path d="M152.669959,19.8371402 C150.705593,19.8371402 149.182808,19.3039341 148.101604,18.237522 C147.0204,17.1711098 146.479798,15.6601355 146.479798,13.7045989 L146.479798,8.99640275 L142.298829,8.99640275 L142.298829,6.3330586 L146.479798,6.3330586 L146.479798,2.40452525 L149.562835,2.40452525 L149.562835,6.3330586 L155.70081,6.3330586 L155.70081,8.99640275 L149.562835,8.99640275 L149.562835,13.2472773 C149.562835,14.4842616 149.853208,15.4123357 150.433954,16.0314994 C151.0147,16.6506631 151.877121,16.9595734 153.021217,16.9582303 C153.626463,16.95938 154.228062,16.8641814 154.803598,16.6761818 C155.362875,16.4993105 155.88528,16.221436 156.345117,15.8562264 L156.345117,18.922497 C155.852128,19.2372814 155.309007,19.4648758 154.739368,19.5953843 C154.062018,19.7606508 153.367019,19.8418432 152.669959,19.8371402 Z" id="Path"></path>
                        <polygon id="Path" points="161.562309 3.60678788 173 9.12188743 173 11.9197228 161.562309 17.4328081 161.562309 14.3408878 169.667916 10.5479979 161.562309 6.75510804"></polygon>
                    </g>
                    <g id="Combined-Shape" transform="translate(99.186667, 0.000000)">
                        <path d="M15.8921829,0 L3.9807724,32.2933333 L0.0534895434,32.2933333 L12.1408953,0 L15.8921829,0 Z M16.2566244,5.12321525 L23.9476599,28.1364297 L20.1302699,28.1364297 L18.4277999,22.899404 L9.73321273,22.8994348 L10.8767943,19.7666354 L17.3985493,19.7332593 L14.3484682,10.3505386 L16.2566244,5.12321525 Z"></path>
                    </g>
                </g>
            </g>
        </g>
    </g>
</svg>