<svg width="24" height="8" viewBox="0 0 24 8" xmlns="http://www.w3.org/2000/svg">
<path d="M3.99902 0.749023C2.2127 0.749023 0.749023 2.21324 0.749023 3.99902C0.749023 5.78499 2.21305 7.24902 3.99902 7.24902C5.78499 7.24902 7.24902 5.78499 7.24902 3.99902C7.24902 2.21305 5.78499 0.749023 3.99902 0.749023ZM11.999 0.749023C10.2127 0.749023 8.74902 2.21324 8.74902 3.99902C8.74902 5.78499 10.2131 7.24902 11.999 7.24902C13.785 7.24902 15.249 5.78499 15.249 3.99902C15.249 2.21305 13.785 0.749023 11.999 0.749023ZM19.999 0.749023C18.2127 0.749023 16.749 2.21324 16.749 3.99902C16.749 5.78499 18.2131 7.24902 19.999 7.24902C21.7853 7.24902 23.249 5.78481 23.249 3.99902C23.249 2.21305 21.785 0.749023 19.999 0.749023ZM3.99902 2.24902C4.97405 2.24902 5.74902 3.02399 5.74902 3.99902C5.74902 4.97405 4.97405 5.74902 3.99902 5.74902C3.02399 5.74902 2.24902 4.97405 2.24902 3.99902C2.24902 3.02381 3.02335 2.24902 3.99902 2.24902ZM11.999 2.24902C12.9741 2.24902 13.749 3.02399 13.749 3.99902C13.749 4.97405 12.9741 5.74902 11.999 5.74902C11.024 5.74902 10.249 4.97405 10.249 3.99902C10.249 3.02381 11.0233 2.24902 11.999 2.24902ZM19.999 2.24902C20.9741 2.24902 21.749 3.02399 21.749 3.99902C21.749 4.97424 20.9747 5.74902 19.999 5.74902C19.024 5.74902 18.249 4.97405 18.249 3.99902C18.249 3.02381 19.0233 2.24902 19.999 2.24902Z" fill="#999999"/>
</svg>
