<svg width="24" height="25" viewBox="0 0 24 25" xmlns="http://www.w3.org/2000/svg">
<path d="M3.99902 8.75275C2.2127 8.75275 0.749023 10.217 0.749023 12.0027C0.749023 13.7887 2.21305 15.2527 3.99902 15.2527C5.78499 15.2527 7.24902 13.7887 7.24902 12.0027C7.24902 10.2168 5.78499 8.75275 3.99902 8.75275ZM11.999 8.75275C10.2127 8.75275 8.74902 10.217 8.74902 12.0027C8.74902 13.7887 10.2131 15.2527 11.999 15.2527C13.785 15.2527 15.249 13.7887 15.249 12.0027C15.249 10.2168 13.785 8.75275 11.999 8.75275ZM19.999 8.75275C18.2127 8.75275 16.749 10.217 16.749 12.0027C16.749 13.7887 18.2131 15.2527 19.999 15.2527C21.7853 15.2527 23.249 13.7885 23.249 12.0027C23.249 10.2168 21.785 8.75275 19.999 8.75275ZM3.99902 10.2527C4.97405 10.2527 5.74902 11.0277 5.74902 12.0027C5.74902 12.9778 4.97405 13.7527 3.99902 13.7527C3.02399 13.7527 2.24902 12.9778 2.24902 12.0027C2.24902 11.0275 3.02335 10.2527 3.99902 10.2527ZM11.999 10.2527C12.9741 10.2527 13.749 11.0277 13.749 12.0027C13.749 12.9778 12.9741 13.7527 11.999 13.7527C11.024 13.7527 10.249 12.9778 10.249 12.0027C10.249 11.0275 11.0233 10.2527 11.999 10.2527ZM19.999 10.2527C20.9741 10.2527 21.749 11.0277 21.749 12.0027C21.749 12.978 20.9747 13.7527 19.999 13.7527C19.024 13.7527 18.249 12.9778 18.249 12.0027C18.249 11.0275 19.0233 10.2527 19.999 10.2527Z"/>
</svg>
