<svg width="28" height="30" viewBox="0 0 28 30" xmlns="http://www.w3.org/2000/svg">
<path d="M3.54736 0.0861965C1.82815 0.154214 0.25 1.55683 0.25 3.44655V26.5589C0.25 29.0785 3.05707 30.7316 5.26123 29.5105L26.1177 17.9544C28.3853 16.6979 28.3853 13.3075 26.1177 12.051L5.26123 0.494888C4.71019 0.189612 4.12043 0.0635239 3.54736 0.0861965ZM3.57373 2.30251C3.76768 2.30167 3.97096 2.35195 4.16992 2.46217L25.0278 14.0183C25.8518 14.4749 25.8518 15.5305 25.0278 15.9871L4.16992 27.5432C3.37408 27.9841 2.5 27.4682 2.5 26.5589V3.44655C2.5 2.99186 2.71803 2.63641 3.03613 2.44899C3.19518 2.35528 3.37979 2.30334 3.57373 2.30251Z" fill="#999999"/>
</svg>
