<svg width="36" height="37" viewBox="0 0 36 37" fill="none" xmlns="http://www.w3.org/2000/svg">
<path d="M8.54736 3.08626C6.82815 3.15428 5.25 4.5569 5.25 6.44661V29.5589C5.25 32.0785 8.05707 33.7317 10.2612 32.5106L31.1177 20.9544C33.3853 19.698 33.3853 16.3076 31.1177 15.0511L10.2612 3.49495C9.71019 3.18967 9.12043 3.06358 8.54736 3.08626ZM8.57373 5.30257C8.76768 5.30173 8.97096 5.35201 9.16992 5.46223L30.0278 17.0184C30.8518 17.4749 30.8518 18.5306 30.0278 18.9871L9.16992 30.5433C8.37408 30.9842 7.5 30.4683 7.5 29.5589V6.44661C7.5 5.99192 7.71803 5.63647 8.03613 5.44905C8.19518 5.35534 8.37979 5.3034 8.57373 5.30257Z" fill="#999999"/>
</svg>
