<svg width="20" height="21" viewBox="0 0 20 21" xmlns="http://www.w3.org/2000/svg">
<path d="M11.5 1.50269C11.7755 1.50269 12 1.72719 12 2.00269V6.50269C12 7.33119 12.6715 8.00269 13.5 8.00269H18C18.2755 8.00269 18.5 8.22719 18.5 8.50269V11.5027C18.5 11.7782 18.2755 12.0027 18 12.0027H13.5C12.6715 12.0027 12 12.6742 12 13.5027V18.0027C12 18.2782 11.7755 18.5027 11.5 18.5027H8.5C8.2245 18.5027 8 18.2782 8 18.0027V13.5027C8 12.6742 7.3285 12.0027 6.5 12.0027H2C1.7245 12.0027 1.5 11.7782 1.5 11.5027V8.50269C1.5 8.22719 1.7245 8.00269 2 8.00269H6.5C7.3285 8.00269 8 7.33119 8 6.50269V2.00269C8 1.72719 8.2245 1.50269 8.5 1.50269H11.5ZM11.5 0.00268555H8.5C7.3955 0.00268555 6.5 0.898185 6.5 2.00269V6.50269H2C0.8955 6.50269 0 7.39819 0 8.50269V11.5027C0 12.6072 0.8955 13.5027 2 13.5027H6.5V18.0027C6.5 19.1072 7.3955 20.0027 8.5 20.0027H11.5C12.6045 20.0027 13.5 19.1072 13.5 18.0027V13.5027H18C19.1045 13.5027 20 12.6072 20 11.5027V8.50269C20 7.39819 19.1045 6.50269 18 6.50269H13.5V2.00269C13.5 0.898185 12.6045 0.00268555 11.5 0.00268555Z" fill="#999999"/>
</svg>
