<svg width="23" height="18" viewBox="0 0 23 18" fill="none" xmlns="http://www.w3.org/2000/svg">
<path d="M1.74994 7.50059e-05C1.65056 -0.00133053 1.55188 0.0170303 1.45966 0.0540906C1.36743 0.091151 1.28349 0.146172 1.21271 0.215955C1.14194 0.285738 1.08573 0.368893 1.04737 0.460586C1.00901 0.552278 0.989258 0.650681 0.989258 0.750075C0.989258 0.849469 1.00901 0.947871 1.04737 1.03956C1.08573 1.13126 1.14194 1.21441 1.21271 1.2842C1.28349 1.35398 1.36743 1.409 1.45966 1.44606C1.55188 1.48312 1.65056 1.50148 1.74994 1.50007H3.12787C3.49184 1.50007 3.79523 1.75154 3.8642 2.10945L4.01361 2.8907L5.62592 11.3585C5.91747 12.8862 7.26351 14.0001 8.81928 14.0001H18.1806C19.7364 14.0001 21.083 12.8867 21.374 11.3585L22.9863 2.8907C23.0069 2.78228 23.0034 2.67064 22.976 2.56373C22.9486 2.45682 22.8979 2.35728 22.8276 2.27221C22.7572 2.18715 22.669 2.11865 22.5692 2.07161C22.4693 2.02457 22.3603 2.00014 22.2499 2.00008H5.37006L5.33783 1.82918C5.13627 0.772841 4.20342 7.50059e-05 3.12787 7.50059e-05H1.74994ZM5.65619 3.50008H21.3437L19.9003 11.0782C19.7423 11.908 19.0258 12.5001 18.1806 12.5001H8.81928C7.97434 12.5001 7.25833 11.908 7.09955 11.0782V11.0772L5.65619 3.50008ZM9.99994 15.0001C9.60212 15.0001 9.22058 15.1581 8.93928 15.4394C8.65798 15.7207 8.49994 16.1022 8.49994 16.5001C8.49994 16.8979 8.65798 17.2794 8.93928 17.5607C9.22058 17.842 9.60212 18.0001 9.99994 18.0001C10.3978 18.0001 10.7793 17.842 11.0606 17.5607C11.3419 17.2794 11.4999 16.8979 11.4999 16.5001C11.4999 16.1022 11.3419 15.7207 11.0606 15.4394C10.7793 15.1581 10.3978 15.0001 9.99994 15.0001ZM16.9999 15.0001C16.6021 15.0001 16.2206 15.1581 15.9393 15.4394C15.658 15.7207 15.4999 16.1022 15.4999 16.5001C15.4999 16.8979 15.658 17.2794 15.9393 17.5607C16.2206 17.842 16.6021 18.0001 16.9999 18.0001C17.3978 18.0001 17.7793 17.842 18.0606 17.5607C18.3419 17.2794 18.4999 16.8979 18.4999 16.5001C18.4999 16.1022 18.3419 15.7207 18.0606 15.4394C17.7793 15.1581 17.3978 15.0001 16.9999 15.0001Z" fill="white"/>
</svg>
