<svg width="20" height="20" viewBox="0 0 20 20" fill="none" xmlns="http://www.w3.org/2000/svg">
<path d="M10.0049 0.49977C9.86475 0.498895 9.72713 0.537316 9.60769 0.610675C9.48824 0.684033 9.39174 0.789395 9.32913 0.91481L6.75296 6.06715L0.635776 7.00856C0.498851 7.02972 0.370462 7.08839 0.264847 7.17806C0.159231 7.26773 0.0805168 7.38491 0.0374324 7.51659C-0.005652 7.64827 -0.0114225 7.78931 0.0207607 7.92407C0.0529439 8.05883 0.121823 8.18204 0.21976 8.28004L4.45121 12.5115L3.50882 18.6355C3.48774 18.7725 3.50504 18.9127 3.5588 19.0405C3.61256 19.1683 3.70068 19.2786 3.81337 19.3594C3.92607 19.4401 4.05893 19.488 4.19721 19.4978C4.33548 19.5076 4.47377 19.4789 4.59671 19.4148L10 16.5955L15.4034 19.4148C15.5263 19.4789 15.6646 19.5076 15.8029 19.4978C15.9411 19.488 16.074 19.4401 16.1867 19.3594C16.2994 19.2786 16.3875 19.1683 16.4413 19.0405C16.495 18.9127 16.5123 18.7725 16.4912 18.6355L15.5489 12.5115L19.7803 8.28004C19.8782 8.18204 19.9471 8.05883 19.9793 7.92407C20.0115 7.78931 20.0057 7.64827 19.9626 7.51659C19.9195 7.38491 19.8408 7.26773 19.7352 7.17806C19.6296 7.08839 19.5012 7.02972 19.3643 7.00856L13.2471 6.06715L10.6709 0.91481C10.6091 0.790879 10.5141 0.6865 10.3965 0.613242C10.279 0.539985 10.1434 0.500709 10.0049 0.49977Z" fill="white"/>
</svg>
