<svg width="20" height="20" viewBox="0 0 20 20" xmlns="http://www.w3.org/2000/svg">
<path d="M10.0049 0.49977C9.86468 0.498895 9.72707 0.537316 9.60763 0.610675C9.48818 0.684033 9.39168 0.789395 9.32907 0.91481L6.7529 6.06715L0.635715 7.00856C0.49879 7.02972 0.370401 7.08839 0.264786 7.17806C0.15917 7.26773 0.0804557 7.38491 0.0373713 7.51659C-0.00571303 7.64827 -0.0114835 7.78931 0.0206997 7.92407C0.0528829 8.05883 0.121762 8.18204 0.219699 8.28004L4.45114 12.5115L3.50876 18.6355C3.48768 18.7725 3.50498 18.9127 3.55874 19.0405C3.6125 19.1683 3.70062 19.2786 3.81331 19.3594C3.92601 19.4401 4.05887 19.488 4.19714 19.4978C4.33542 19.5076 4.47371 19.4789 4.59665 19.4148L9.99997 16.5955L15.4033 19.4148C15.5262 19.4789 15.6645 19.5076 15.8028 19.4978C15.9411 19.488 16.0739 19.4401 16.1866 19.3594C16.2993 19.2786 16.3874 19.1683 16.4412 19.0405C16.495 18.9127 16.5123 18.7725 16.4912 18.6355L15.5488 12.5115L19.7802 8.28004C19.8782 8.18204 19.9471 8.05883 19.9792 7.92407C20.0114 7.78931 20.0057 7.64827 19.9626 7.51659C19.9195 7.38491 19.8408 7.26773 19.7352 7.17806C19.6295 7.08839 19.5012 7.02972 19.3642 7.00856L13.247 6.06715L10.6709 0.91481C10.609 0.790879 10.514 0.6865 10.3965 0.613242C10.2789 0.539985 10.1434 0.500709 10.0049 0.49977ZM9.99997 2.92653L12.0791 7.08473C12.1326 7.19201 12.2111 7.28488 12.308 7.35557C12.4048 7.42625 12.5172 7.47269 12.6357 7.49098L17.6728 8.26637L14.2197 11.7195C14.1364 11.8028 14.0739 11.9046 14.0372 12.0166C14.0006 12.1285 13.9908 12.2476 14.0088 12.364L14.7832 17.3992L10.3467 15.0847C10.2396 15.0289 10.1207 14.9998 9.99997 14.9998C9.87926 14.9998 9.76034 15.0289 9.65329 15.0847L5.21677 17.3992L5.99118 12.364C6.00912 12.2476 5.99936 12.1285 5.96272 12.0166C5.92607 11.9046 5.86356 11.8028 5.78025 11.7195L2.32712 8.26637L7.36423 7.49098C7.48273 7.47269 7.59511 7.42625 7.69197 7.35557C7.78882 7.28488 7.86731 7.19201 7.92087 7.08473L9.99997 2.92653Z" fill="#999999"/>
</svg>
